<?xml version="1.0" encoding="utf-8"?>
<!-- Generator: Adobe Illustrator 16.0.0, SVG Export Plug-In . SVG Version: 6.00 Build 0)  -->
<!DOCTYPE svg PUBLIC "-//W3C//DTD SVG 1.1//EN" "http://www.w3.org/Graphics/SVG/1.1/DTD/svg11.dtd">
<svg version="1.1" id="Layer_1" xmlns="http://www.w3.org/2000/svg" xmlns:xlink="http://www.w3.org/1999/xlink" x="0px" y="0px"
	 width="261px" height="98.75px" viewBox="0 0 261 98.75" enable-background="new 0 0 261 98.75" xml:space="preserve">
<line fill="none" stroke="#000000" stroke-miterlimit="10" x1="9" y1="36" x2="108.2" y2="36"/>
<g>
	<line fill="none" stroke="#000000" stroke-miterlimit="10" x1="9" y1="48" x2="27" y2="48"/>
	<line fill="none" stroke="#000000" stroke-miterlimit="10" x1="36" y1="48" x2="54" y2="48"/>
	<line fill="none" stroke="#000000" stroke-miterlimit="10" x1="63" y1="48" x2="81" y2="48"/>
	<line fill="none" stroke="#000000" stroke-miterlimit="10" x1="90" y1="48" x2="108" y2="48"/>
</g>
<g>
	<line fill="none" stroke="#000000" stroke-miterlimit="10" x1="9" y1="60" x2="18" y2="60"/>
	<line fill="none" stroke="#000000" stroke-miterlimit="10" x1="27" y1="60" x2="36" y2="60"/>
	<line fill="none" stroke="#000000" stroke-miterlimit="10" x1="45" y1="60" x2="54" y2="60"/>
	<line fill="none" stroke="#000000" stroke-miterlimit="10" x1="63" y1="60" x2="72" y2="60"/>
	<line fill="none" stroke="#000000" stroke-miterlimit="10" x1="81" y1="60" x2="90" y2="60"/>
	<line fill="none" stroke="#000000" stroke-miterlimit="10" x1="99" y1="60" x2="108" y2="60"/>
</g>
<line fill="none" stroke="#000000" stroke-width="3" stroke-miterlimit="10" x1="8.824" y1="79.875" x2="108" y2="79.875"/>
<g>
	<path fill="#3C3C3C" d="M113.83,32.222h0.88l1.298,6.864h0.319l1.551-6.798h0.99l1.551,6.798h0.319l1.298-6.864h0.869l-1.54,7.612
		h-1.551l-1.441-6.501l-1.441,6.501h-1.551L113.83,32.222z"/>
	<path fill="#3C3C3C" d="M127.558,39.151l0.319-0.033l0.022,0.649c-0.836,0.117-1.551,0.176-2.145,0.176
		c-0.792,0-1.353-0.229-1.683-0.688c-0.33-0.458-0.495-1.171-0.495-2.139c0-1.929,0.767-2.893,2.299-2.893
		c0.741,0,1.294,0.207,1.661,0.622c0.367,0.414,0.55,1.065,0.55,1.952l-0.044,0.627h-3.63c0,0.609,0.11,1.06,0.33,1.353
		c0.22,0.293,0.604,0.44,1.15,0.44S126.993,39.195,127.558,39.151z M127.261,36.765c0-0.675-0.108-1.151-0.324-1.43
		c-0.216-0.279-0.568-0.418-1.056-0.418c-0.488,0-0.854,0.147-1.1,0.44c-0.246,0.293-0.372,0.763-0.379,1.408H127.261z"/>
	<path fill="#3C3C3C" d="M129.439,39.833v-7.898h0.825v7.898H129.439z"/>
	<path fill="#3C3C3C" d="M131.979,39.833v-7.898h0.826v7.898H131.979z"/>
	<path fill="#3C3C3C" d="M134.411,37.193v-0.77h3.333v0.77H134.411z"/>
	<path fill="#3C3C3C" d="M143.605,39.833h-4.19v-7.612h0.847v6.853h3.344V39.833z"/>
	<path fill="#3C3C3C" d="M144.244,37.072c0-1.004,0.18-1.73,0.539-2.178c0.359-0.448,0.966-0.671,1.82-0.671
		s1.459,0.224,1.815,0.671c0.354,0.447,0.533,1.173,0.533,2.178c0,1.005-0.168,1.735-0.507,2.189
		c-0.338,0.454-0.952,0.682-1.848,0.682c-0.895,0-1.511-0.227-1.848-0.682C144.413,38.807,144.244,38.077,144.244,37.072z
		 M145.091,37.056c0,0.803,0.097,1.366,0.292,1.688c0.195,0.322,0.602,0.484,1.221,0.484c0.621,0,1.024-0.16,1.215-0.479
		s0.287-0.882,0.287-1.688s-0.106-1.362-0.319-1.667c-0.212-0.304-0.606-0.457-1.183-0.457s-0.972,0.152-1.188,0.457
		C145.199,35.699,145.091,36.253,145.091,37.056z"/>
	<path fill="#3C3C3C" d="M152.352,34.224c0.242,0,0.652,0.044,1.232,0.132l0.264,0.033l-0.033,0.671
		c-0.586-0.066-1.02-0.099-1.297-0.099c-0.625,0-1.047,0.148-1.271,0.445c-0.225,0.297-0.335,0.847-0.335,1.65
		c0,0.803,0.104,1.362,0.313,1.677s0.644,0.473,1.303,0.473l1.298-0.099l0.032,0.682c-0.682,0.103-1.191,0.154-1.528,0.154
		c-0.858,0-1.45-0.22-1.777-0.66c-0.325-0.44-0.489-1.183-0.489-2.228c0-1.045,0.176-1.778,0.528-2.2
		C150.943,34.435,151.529,34.224,152.352,34.224z"/>
	<path fill="#3C3C3C" d="M158.973,35.995v2.816c0.022,0.271,0.235,0.433,0.639,0.484l-0.033,0.649c-0.579,0-1.016-0.146-1.309-0.44
		c-0.66,0.293-1.32,0.44-1.98,0.44c-0.506,0-0.891-0.143-1.155-0.429c-0.264-0.286-0.396-0.697-0.396-1.232
		c0-0.536,0.136-0.93,0.406-1.183c0.271-0.253,0.696-0.409,1.276-0.468l1.728-0.165v-0.473c0-0.374-0.082-0.642-0.242-0.803
		c-0.161-0.161-0.381-0.242-0.66-0.242c-0.587,0-1.196,0.037-1.826,0.11l-0.341,0.033l-0.033-0.627
		c0.808-0.161,1.521-0.242,2.146-0.242c0.623,0,1.076,0.143,1.357,0.429C158.832,34.938,158.973,35.386,158.973,35.995z
		 M155.585,38.238c0,0.675,0.278,1.012,0.836,1.012c0.499,0,0.99-0.084,1.474-0.253l0.254-0.088v-1.815l-1.629,0.154
		c-0.33,0.029-0.567,0.125-0.715,0.286C155.659,37.696,155.585,37.931,155.585,38.238z"/>
	<path fill="#3C3C3C" d="M163.45,35.048h-1.749v2.629c0,0.63,0.045,1.045,0.137,1.243c0.092,0.198,0.311,0.297,0.655,0.297
		l0.979-0.066l0.055,0.682c-0.491,0.081-0.865,0.121-1.123,0.121c-0.571,0-0.967-0.139-1.188-0.418
		c-0.22-0.279-0.33-0.811-0.33-1.595v-2.893h-0.781v-0.715h0.781V32.65h0.814v1.683h1.749V35.048L163.45,35.048z"/>
	<path fill="#3C3C3C" d="M168.203,39.151l0.318-0.033l0.022,0.649c-0.836,0.117-1.551,0.176-2.146,0.176
		c-0.791,0-1.353-0.229-1.683-0.688c-0.329-0.458-0.495-1.171-0.495-2.139c0-1.929,0.768-2.893,2.299-2.893
		c0.742,0,1.295,0.207,1.662,0.622c0.366,0.414,0.549,1.065,0.549,1.952l-0.043,0.627h-3.631c0,0.609,0.11,1.06,0.33,1.353
		c0.221,0.293,0.604,0.44,1.15,0.44C167.082,39.217,167.639,39.195,168.203,39.151z M167.904,36.765c0-0.675-0.107-1.151-0.323-1.43
		c-0.216-0.279-0.567-0.418-1.056-0.418s-0.854,0.147-1.101,0.44c-0.245,0.293-0.372,0.763-0.379,1.408H167.904z"/>
	<path fill="#3C3C3C" d="M174.241,31.936v7.898h-0.814V39.46c-0.565,0.323-1.122,0.484-1.672,0.484c-0.293,0-0.55-0.037-0.771-0.11
		c-0.219-0.073-0.424-0.205-0.615-0.396c-0.396-0.396-0.594-1.127-0.594-2.194c0-1.067,0.178-1.837,0.533-2.31
		s0.944-0.709,1.767-0.709c0.425,0,0.876,0.048,1.353,0.143v-2.431L174.241,31.936L174.241,31.936z M171.381,39.129
		c0.133,0.051,0.303,0.077,0.512,0.077s0.444-0.035,0.705-0.104c0.26-0.069,0.463-0.138,0.609-0.204l0.22-0.099V35.07
		c-0.47-0.088-0.905-0.132-1.309-0.132c-0.558,0-0.946,0.178-1.166,0.534c-0.22,0.355-0.33,0.907-0.33,1.655
		c0,0.851,0.128,1.423,0.385,1.716C171.125,38.983,171.249,39.078,171.381,39.129z"/>
	<path fill="#3C3C3C" d="M178.398,39.833v-7.612h4.555v0.748h-3.707v2.97h3.135v0.748h-3.135v3.146H178.398z"/>
	<path fill="#3C3C3C" d="M187.563,35.995v2.816c0.021,0.271,0.234,0.433,0.638,0.484l-0.033,0.649c-0.579,0-1.017-0.146-1.31-0.44
		c-0.66,0.293-1.319,0.44-1.979,0.44c-0.506,0-0.892-0.143-1.155-0.429c-0.264-0.286-0.396-0.697-0.396-1.232
		c0-0.536,0.136-0.93,0.407-1.183c0.271-0.253,0.695-0.409,1.275-0.468l1.727-0.165v-0.473c0-0.374-0.08-0.642-0.241-0.803
		s-0.382-0.242-0.66-0.242c-0.587,0-1.196,0.037-1.826,0.11l-0.341,0.033l-0.033-0.627c0.807-0.161,1.521-0.242,2.145-0.242
		s1.076,0.143,1.359,0.429C187.42,34.938,187.563,35.386,187.563,35.995z M184.174,38.238c0,0.675,0.278,1.012,0.836,1.012
		c0.499,0,0.99-0.084,1.475-0.253l0.252-0.088v-1.815l-1.627,0.154c-0.33,0.029-0.568,0.125-0.715,0.286
		C184.247,37.696,184.174,37.931,184.174,38.238z"/>
	<path fill="#3C3C3C" d="M192.622,34.333h0.825v5.5h-0.825v-0.385c-0.55,0.33-1.093,0.495-1.628,0.495
		c-0.748,0-1.245-0.194-1.491-0.583c-0.246-0.389-0.369-1.107-0.369-2.156v-2.871h0.825v2.86c0,0.799,0.07,1.335,0.209,1.606
		s0.455,0.407,0.945,0.407c0.242,0,0.488-0.035,0.738-0.104c0.248-0.07,0.439-0.138,0.571-0.204l0.198-0.099L192.622,34.333
		L192.622,34.333z"/>
	<path fill="#3C3C3C" d="M195.098,39.833v-7.898h0.824v7.898H195.098z"/>
	<path fill="#3C3C3C" d="M200.42,35.048h-1.749v2.629c0,0.63,0.045,1.045,0.138,1.243c0.092,0.198,0.31,0.297,0.654,0.297
		l0.979-0.066l0.056,0.682c-0.491,0.081-0.865,0.121-1.122,0.121c-0.572,0-0.968-0.139-1.188-0.418
		c-0.221-0.279-0.33-0.811-0.33-1.595v-2.893h-0.781v-0.715h0.781V32.65h0.813v1.683h1.749V35.048L200.42,35.048z"/>
</g>
<g>
	<path fill="#3C3C3C" d="M113.931,51.833l2.09-7.612h1.848l2.09,7.612h-0.836l-0.55-1.958h-3.256l-0.55,1.958H113.931z
		 M116.659,44.947l-1.155,4.169h2.882l-1.155-4.169H116.659z"/>
	<path fill="#3C3C3C" d="M121.015,54.275v-7.942h0.814v0.396c0.557-0.337,1.107-0.506,1.65-0.506c0.697,0,1.203,0.222,1.518,0.666
		c0.315,0.444,0.473,1.175,0.473,2.194c0,1.021-0.186,1.751-0.556,2.194s-0.984,0.666-1.842,0.666c-0.448,0-0.858-0.041-1.232-0.121
		v2.453H121.015z M123.358,46.96c-0.22,0-0.456,0.037-0.709,0.11c-0.253,0.074-0.453,0.147-0.599,0.22l-0.209,0.11v3.708
		c0.521,0.08,0.917,0.121,1.188,0.121c0.594,0,1.01-0.168,1.249-0.506c0.238-0.338,0.357-0.888,0.357-1.651
		c0-0.762-0.108-1.305-0.325-1.628C124.093,47.122,123.776,46.96,123.358,46.96z"/>
	<path fill="#3C3C3C" d="M126.812,54.275v-7.942h0.814v0.396c0.557-0.337,1.107-0.506,1.65-0.506c0.697,0,1.203,0.222,1.518,0.666
		c0.315,0.444,0.474,1.175,0.474,2.194c0,1.021-0.187,1.751-0.557,2.194s-0.984,0.666-1.842,0.666c-0.448,0-0.858-0.041-1.232-0.121
		v2.453H126.812z M129.155,46.96c-0.22,0-0.456,0.037-0.709,0.11c-0.253,0.074-0.453,0.147-0.599,0.22l-0.209,0.11v3.708
		c0.521,0.08,0.917,0.121,1.188,0.121c0.594,0,1.01-0.168,1.249-0.506c0.238-0.338,0.357-0.888,0.357-1.651
		c0-0.762-0.108-1.305-0.325-1.628C129.89,47.122,129.573,46.96,129.155,46.96z"/>
	<path fill="#3C3C3C" d="M132.609,51.833v-5.5h0.813v0.748c0.638-0.44,1.31-0.729,2.013-0.869v0.836
		c-0.308,0.059-0.629,0.15-0.961,0.275c-0.334,0.125-0.59,0.234-0.766,0.33l-0.275,0.143v4.037H132.609z"/>
	<path fill="#3C3C3C" d="M136.063,49.072c0-1.004,0.181-1.73,0.539-2.178c0.359-0.448,0.967-0.671,1.821-0.671
		s1.459,0.224,1.815,0.671c0.354,0.447,0.533,1.173,0.533,2.178c0,1.005-0.168,1.735-0.506,2.189s-0.953,0.683-1.849,0.683
		s-1.511-0.228-1.849-0.683C136.23,50.807,136.063,50.077,136.063,49.072z M136.91,49.056c0,0.803,0.097,1.366,0.292,1.688
		c0.194,0.322,0.601,0.484,1.221,0.484s1.024-0.16,1.216-0.479c0.189-0.319,0.285-0.882,0.285-1.688s-0.105-1.362-0.318-1.667
		c-0.213-0.304-0.606-0.457-1.183-0.457c-0.575,0-0.972,0.152-1.188,0.457S136.91,48.252,136.91,49.056z"/>
	<path fill="#3C3C3C" d="M141.432,46.333h0.901l1.342,2.156l1.343-2.156h0.901l-1.749,2.728l1.738,2.772h-0.902l-1.331-2.145
		l-1.342,2.145h-0.901l1.727-2.75L141.432,46.333z"/>
	<path fill="#3C3C3C" d="M146.953,45.09v-0.957h0.824v0.957H146.953z M146.953,51.833v-5.5h0.824v5.5H146.953z"/>
	<path fill="#3C3C3C" d="M150.188,51.833h-0.826v-5.5h0.814v0.385c0.551-0.33,1.086-0.495,1.606-0.495
		c0.682,0,1.159,0.187,1.43,0.561c0.242-0.147,0.556-0.277,0.94-0.391c0.385-0.114,0.724-0.17,1.018-0.17
		c0.732,0,1.227,0.196,1.479,0.588c0.254,0.393,0.379,1.098,0.379,2.118v2.904h-0.824v-2.882c0-0.763-0.073-1.285-0.221-1.568
		c-0.146-0.282-0.457-0.423-0.935-0.423c-0.241,0-0.491,0.035-0.748,0.104c-0.257,0.07-0.454,0.138-0.594,0.204l-0.209,0.099
		c0.095,0.242,0.144,0.777,0.144,1.606v2.86h-0.826v-2.838c0-0.792-0.071-1.329-0.213-1.612c-0.144-0.282-0.457-0.423-0.941-0.423
		c-0.234,0-0.475,0.035-0.721,0.104c-0.246,0.07-0.435,0.138-0.565,0.204l-0.187,0.099V51.833L150.188,51.833z"/>
	<path fill="#3C3C3C" d="M162.439,47.994v2.816c0.022,0.271,0.235,0.433,0.639,0.483l-0.033,0.649c-0.579,0-1.016-0.146-1.309-0.44
		c-0.66,0.293-1.32,0.44-1.98,0.44c-0.506,0-0.891-0.144-1.154-0.43c-0.265-0.285-0.396-0.697-0.396-1.231
		c0-0.536,0.136-0.93,0.406-1.183c0.271-0.253,0.697-0.409,1.277-0.468l1.727-0.165v-0.473c0-0.374-0.081-0.642-0.242-0.803
		s-0.381-0.242-0.66-0.242c-0.587,0-1.195,0.037-1.826,0.11l-0.341,0.033l-0.032-0.627c0.807-0.161,1.521-0.242,2.145-0.242
		c0.623,0,1.076,0.143,1.357,0.429C162.299,46.938,162.439,47.385,162.439,47.994z M159.053,50.238c0,0.675,0.278,1.012,0.836,1.012
		c0.5,0,0.99-0.084,1.475-0.253l0.253-0.088v-1.815l-1.628,0.154c-0.33,0.029-0.568,0.125-0.715,0.286
		C159.126,49.695,159.053,49.93,159.053,50.238z"/>
	<path fill="#3C3C3C" d="M166.917,47.048h-1.749v2.629c0,0.63,0.045,1.046,0.137,1.243c0.092,0.198,0.311,0.297,0.655,0.297
		l0.979-0.066l0.055,0.683c-0.491,0.081-0.865,0.121-1.122,0.121c-0.572,0-0.968-0.14-1.188-0.418
		c-0.22-0.279-0.33-0.812-0.33-1.595v-2.894h-0.78v-0.715h0.78V44.65h0.814v1.683h1.749V47.048L166.917,47.048z"/>
	<path fill="#3C3C3C" d="M171.67,51.15l0.318-0.032l0.023,0.649c-0.837,0.116-1.552,0.176-2.146,0.176
		c-0.792,0-1.353-0.229-1.683-0.688c-0.33-0.458-0.496-1.171-0.496-2.139c0-1.929,0.768-2.893,2.299-2.893
		c0.742,0,1.295,0.207,1.662,0.622c0.367,0.414,0.55,1.065,0.55,1.952l-0.044,0.627h-3.631c0,0.609,0.11,1.061,0.33,1.354
		c0.221,0.293,0.604,0.439,1.15,0.439C170.549,51.217,171.105,51.195,171.67,51.15z M171.373,48.764c0-0.675-0.107-1.151-0.324-1.43
		c-0.216-0.279-0.568-0.418-1.056-0.418c-0.488,0-0.854,0.147-1.101,0.44s-0.371,0.763-0.379,1.408H171.373z"/>
	<path fill="#3C3C3C" d="M173.55,51.833v-7.898h0.825v7.898H173.55z"/>
	<path fill="#3C3C3C" d="M175.508,46.333h0.825l1.375,4.785h0.362l1.387-4.785h0.825l-2.288,7.942h-0.825l0.715-2.442h-0.813
		L175.508,46.333z"/>
	<path fill="#3C3C3C" d="M181.141,49.193v-0.77h3.332v0.77H181.141z"/>
	<path fill="#3C3C3C" d="M190.336,51.833h-4.191v-7.612h0.848v6.853h3.344V51.833z"/>
	<path fill="#3C3C3C" d="M190.975,49.072c0-1.004,0.18-1.73,0.539-2.178c0.358-0.448,0.965-0.671,1.82-0.671
		c0.854,0,1.459,0.224,1.814,0.671c0.355,0.447,0.533,1.173,0.533,2.178c0,1.005-0.168,1.735-0.506,2.189s-0.953,0.683-1.848,0.683
		s-1.512-0.228-1.848-0.683C191.143,50.807,190.975,50.077,190.975,49.072z M191.82,49.056c0,0.803,0.098,1.366,0.293,1.688
		s0.601,0.484,1.221,0.484s1.023-0.16,1.215-0.479c0.189-0.319,0.286-0.882,0.286-1.688s-0.106-1.362-0.319-1.667
		c-0.211-0.304-0.605-0.457-1.182-0.457s-0.973,0.152-1.188,0.457C191.93,47.699,191.82,48.252,191.82,49.056z"/>
	<path fill="#3C3C3C" d="M199.081,46.223c0.242,0,0.651,0.044,1.231,0.132l0.265,0.033l-0.033,0.671
		c-0.587-0.066-1.021-0.099-1.298-0.099c-0.624,0-1.047,0.148-1.271,0.445c-0.224,0.297-0.334,0.847-0.334,1.65
		c0,0.803,0.104,1.362,0.313,1.677c0.209,0.314,0.645,0.473,1.303,0.473l1.299-0.1l0.032,0.683
		c-0.683,0.103-1.192,0.153-1.528,0.153c-0.858,0-1.451-0.219-1.777-0.659s-0.489-1.183-0.489-2.228s0.176-1.778,0.528-2.2
		C197.673,46.434,198.26,46.223,199.081,46.223z"/>
	<path fill="#3C3C3C" d="M205.703,47.994v2.816c0.021,0.271,0.234,0.433,0.638,0.483l-0.032,0.649c-0.58,0-1.017-0.146-1.31-0.44
		c-0.66,0.293-1.319,0.44-1.979,0.44c-0.506,0-0.892-0.144-1.156-0.43c-0.264-0.285-0.396-0.697-0.396-1.231
		c0-0.536,0.136-0.93,0.407-1.183s0.695-0.409,1.275-0.468l1.728-0.165v-0.473c0-0.374-0.081-0.642-0.241-0.803
		c-0.162-0.161-0.382-0.242-0.66-0.242c-0.588,0-1.197,0.037-1.826,0.11l-0.342,0.033l-0.033-0.627
		c0.808-0.161,1.521-0.242,2.146-0.242c0.623,0,1.076,0.143,1.358,0.429C205.563,46.938,205.703,47.385,205.703,47.994z
		 M202.314,50.238c0,0.675,0.278,1.012,0.836,1.012c0.5,0,0.99-0.084,1.475-0.253l0.253-0.088v-1.815l-1.628,0.154
		c-0.33,0.029-0.568,0.125-0.715,0.286C202.389,49.695,202.314,49.93,202.314,50.238z"/>
	<path fill="#3C3C3C" d="M210.18,47.048h-1.748v2.629c0,0.63,0.045,1.046,0.137,1.243c0.093,0.198,0.311,0.297,0.654,0.297
		l0.979-0.066l0.055,0.683c-0.491,0.081-0.864,0.121-1.122,0.121c-0.57,0-0.968-0.14-1.188-0.418
		c-0.221-0.279-0.33-0.812-0.33-1.595v-2.894h-0.781v-0.715h0.781V44.65h0.813v1.683h1.75V47.048L210.18,47.048z"/>
	<path fill="#3C3C3C" d="M214.932,51.15l0.318-0.032l0.021,0.649c-0.836,0.116-1.551,0.176-2.146,0.176
		c-0.792,0-1.353-0.229-1.683-0.688c-0.33-0.458-0.495-1.171-0.495-2.139c0-1.929,0.767-2.893,2.299-2.893
		c0.741,0,1.295,0.207,1.661,0.622c0.367,0.414,0.55,1.065,0.55,1.952l-0.044,0.627h-3.63c0,0.609,0.11,1.061,0.329,1.354
		c0.221,0.293,0.604,0.439,1.15,0.439C213.813,51.217,214.366,51.195,214.932,51.15z M214.635,48.764
		c0-0.675-0.107-1.151-0.324-1.43s-0.568-0.418-1.057-0.418s-0.854,0.147-1.1,0.44s-0.373,0.763-0.381,1.408H214.635z"/>
	<path fill="#3C3C3C" d="M220.971,43.935v7.898h-0.813v-0.374c-0.564,0.323-1.122,0.484-1.672,0.484
		c-0.295,0-0.551-0.037-0.771-0.11c-0.22-0.073-0.425-0.205-0.615-0.396c-0.396-0.396-0.595-1.127-0.595-2.194
		s0.179-1.837,0.534-2.31s0.943-0.709,1.766-0.709c0.426,0,0.877,0.048,1.354,0.143v-2.431L220.971,43.935L220.971,43.935z
		 M218.111,51.129c0.132,0.051,0.303,0.077,0.512,0.077s0.443-0.035,0.703-0.104c0.261-0.069,0.464-0.138,0.611-0.203l0.22-0.1
		V47.07c-0.47-0.088-0.906-0.132-1.31-0.132c-0.558,0-0.945,0.178-1.166,0.534c-0.221,0.355-0.33,0.907-0.33,1.655
		c0,0.852,0.129,1.423,0.385,1.716C217.854,50.982,217.979,51.078,218.111,51.129z"/>
	<path fill="#3C3C3C" d="M225.128,51.833v-7.612h4.556v0.748h-3.707v2.97h3.135v0.748h-3.135v3.146H225.128z"/>
	<path fill="#3C3C3C" d="M234.291,47.994v2.816c0.021,0.271,0.234,0.433,0.639,0.483l-0.033,0.649c-0.58,0-1.016-0.146-1.31-0.44
		c-0.66,0.293-1.319,0.44-1.979,0.44c-0.506,0-0.892-0.144-1.154-0.43c-0.264-0.285-0.396-0.697-0.396-1.231
		c0-0.536,0.135-0.93,0.406-1.183s0.697-0.409,1.276-0.468l1.727-0.165v-0.473c0-0.374-0.079-0.642-0.241-0.803
		s-0.382-0.242-0.66-0.242c-0.586,0-1.194,0.037-1.825,0.11l-0.341,0.033l-0.033-0.627c0.807-0.161,1.521-0.242,2.145-0.242
		c0.624,0,1.076,0.143,1.359,0.429C234.15,46.938,234.291,47.385,234.291,47.994z M230.902,50.238c0,0.675,0.279,1.012,0.836,1.012
		c0.5,0,0.99-0.084,1.475-0.253l0.253-0.088v-1.815l-1.628,0.154c-0.33,0.029-0.568,0.125-0.715,0.286
		C230.977,49.695,230.902,49.93,230.902,50.238z"/>
	<path fill="#3C3C3C" d="M239.352,46.333h0.824v5.5h-0.824v-0.385c-0.551,0.329-1.094,0.495-1.629,0.495
		c-0.748,0-1.244-0.194-1.49-0.584c-0.246-0.389-0.367-1.106-0.367-2.155v-2.871h0.824v2.86c0,0.799,0.069,1.334,0.209,1.606
		s0.455,0.407,0.945,0.407c0.242,0,0.488-0.035,0.737-0.104c0.249-0.068,0.438-0.138,0.571-0.203l0.197-0.1v-4.466H239.352z"/>
	<path fill="#3C3C3C" d="M241.827,51.833v-7.898h0.823v7.898H241.827z"/>
	<path fill="#3C3C3C" d="M247.148,47.048H245.4v2.629c0,0.63,0.045,1.046,0.138,1.243c0.092,0.198,0.31,0.297,0.653,0.297
		l0.979-0.066l0.056,0.683c-0.492,0.081-0.865,0.121-1.123,0.121c-0.57,0-0.967-0.14-1.188-0.418
		c-0.221-0.279-0.33-0.812-0.33-1.595v-2.894h-0.781v-0.715h0.781V44.65h0.813v1.683h1.75V47.048L247.148,47.048z"/>
</g>
<g>
	<path fill="#3C3C3C" d="M118.367,63.879c-0.755,0.154-1.434,0.23-2.035,0.23c-0.602,0-1.087-0.082-1.458-0.248
		c-0.371-0.164-0.656-0.42-0.858-0.77c-0.202-0.348-0.341-0.748-0.418-1.199c-0.077-0.451-0.116-1.014-0.116-1.688
		s0.039-1.241,0.116-1.7c0.077-0.458,0.216-0.862,0.418-1.215c0.202-0.353,0.486-0.608,0.853-0.771
		c0.366-0.16,0.843-0.242,1.43-0.242s1.276,0.082,2.068,0.242l-0.033,0.715c-0.741-0.131-1.401-0.197-1.98-0.197
		c-0.807,0-1.34,0.24-1.601,0.72c-0.26,0.479-0.391,1.3-0.391,2.458c0,0.58,0.024,1.045,0.072,1.396
		c0.047,0.353,0.141,0.67,0.28,0.953c0.139,0.283,0.343,0.483,0.611,0.604c0.268,0.121,0.66,0.183,1.177,0.183
		s1.127-0.066,1.832-0.199L118.367,63.879z"/>
	<path fill="#3C3C3C" d="M119.257,61.239c0-1.005,0.18-1.73,0.539-2.179c0.359-0.447,0.966-0.67,1.821-0.67
		c0.854,0,1.459,0.223,1.815,0.67c0.355,0.447,0.533,1.174,0.533,2.179s-0.168,1.735-0.506,2.188
		c-0.338,0.454-0.953,0.682-1.848,0.682s-1.511-0.227-1.848-0.682C119.426,62.975,119.257,62.244,119.257,61.239z M120.104,61.223
		c0,0.803,0.097,1.366,0.292,1.688c0.195,0.321,0.601,0.483,1.221,0.483c0.62,0,1.024-0.16,1.215-0.479
		c0.19-0.318,0.286-0.882,0.286-1.688c0-0.807-0.106-1.362-0.319-1.668c-0.212-0.304-0.606-0.457-1.182-0.457
		c-0.576,0-0.972,0.152-1.188,0.457C120.212,59.866,120.104,60.42,120.104,61.223z"/>
	<path fill="#3C3C3C" d="M126.133,64h-0.825v-5.5h0.814v0.385c0.594-0.33,1.162-0.494,1.705-0.494c0.733,0,1.227,0.197,1.479,0.594
		c0.252,0.396,0.379,1.1,0.379,2.111V64h-0.814v-2.882c0-0.763-0.075-1.285-0.226-1.568c-0.15-0.282-0.471-0.423-0.962-0.423
		c-0.235,0-0.482,0.035-0.743,0.104c-0.26,0.07-0.46,0.139-0.599,0.205l-0.209,0.099L126.133,64L126.133,64z"/>
	<path fill="#3C3C3C" d="M133.271,58.391c0.242,0,0.651,0.045,1.231,0.133l0.265,0.033l-0.033,0.67
		c-0.588-0.065-1.021-0.099-1.299-0.099c-0.623,0-1.047,0.147-1.271,0.445c-0.224,0.297-0.335,0.847-0.335,1.649
		s0.104,1.362,0.313,1.678c0.209,0.314,0.645,0.473,1.303,0.473l1.299-0.1l0.033,0.683c-0.682,0.103-1.192,0.153-1.529,0.153
		c-0.857,0-1.45-0.219-1.777-0.659c-0.326-0.44-0.489-1.183-0.489-2.228c0-1.046,0.176-1.779,0.528-2.201
		C131.863,58.602,132.45,58.391,133.271,58.391z"/>
	<path fill="#3C3C3C" d="M139.686,63.318l0.318-0.033l0.021,0.648c-0.836,0.117-1.551,0.176-2.145,0.176
		c-0.792,0-1.354-0.229-1.683-0.688c-0.33-0.458-0.495-1.171-0.495-2.139c0-1.93,0.768-2.893,2.299-2.893
		c0.741,0,1.294,0.207,1.661,0.621c0.366,0.414,0.55,1.065,0.55,1.952l-0.044,0.627h-3.63c0,0.609,0.109,1.06,0.33,1.353
		c0.22,0.293,0.604,0.44,1.15,0.44C138.564,63.384,139.12,63.361,139.686,63.318z M139.387,60.932c0-0.675-0.107-1.15-0.324-1.43
		c-0.215-0.279-0.567-0.418-1.056-0.418c-0.487,0-0.854,0.146-1.1,0.439c-0.246,0.293-0.372,0.764-0.38,1.408H139.387z"/>
	<path fill="#3C3C3C" d="M145.382,60.162v2.816c0.022,0.271,0.235,0.433,0.638,0.483l-0.033,0.649c-0.578,0-1.016-0.146-1.309-0.44
		c-0.66,0.293-1.32,0.44-1.979,0.44c-0.507,0-0.892-0.144-1.155-0.43c-0.264-0.285-0.396-0.697-0.396-1.231
		c0-0.536,0.137-0.931,0.408-1.183c0.271-0.254,0.695-0.41,1.275-0.469l1.727-0.165v-0.473c0-0.374-0.08-0.642-0.242-0.804
		c-0.16-0.16-0.381-0.241-0.66-0.241c-0.586,0-1.195,0.036-1.825,0.11l-0.341,0.032l-0.033-0.627
		c0.807-0.161,1.521-0.241,2.145-0.241s1.076,0.143,1.358,0.428C145.241,59.105,145.382,59.553,145.382,60.162z M141.994,62.404
		c0,0.676,0.277,1.013,0.836,1.013c0.499,0,0.99-0.084,1.475-0.253l0.252-0.088v-1.815l-1.627,0.154
		c-0.33,0.028-0.568,0.125-0.716,0.286C142.066,61.863,141.994,62.098,141.994,62.404z"/>
	<path fill="#3C3C3C" d="M147.076,64v-7.898h0.824V64H147.076z"/>
	<path fill="#3C3C3C" d="M153.291,63.318l0.318-0.033l0.022,0.648c-0.836,0.117-1.551,0.176-2.146,0.176
		c-0.791,0-1.353-0.229-1.682-0.688c-0.33-0.458-0.496-1.171-0.496-2.139c0-1.93,0.768-2.893,2.299-2.893
		c0.742,0,1.295,0.207,1.662,0.621s0.549,1.065,0.549,1.952l-0.043,0.627h-3.631c0,0.609,0.11,1.06,0.33,1.353
		c0.221,0.293,0.604,0.44,1.15,0.44C152.17,63.384,152.727,63.361,153.291,63.318z M152.994,60.932c0-0.675-0.107-1.15-0.324-1.43
		c-0.216-0.279-0.568-0.418-1.057-0.418c-0.487,0-0.854,0.146-1.1,0.439s-0.371,0.764-0.379,1.408H152.994z"/>
	<path fill="#3C3C3C" d="M159.33,56.104V64h-0.814v-0.374c-0.564,0.323-1.121,0.483-1.672,0.483c-0.293,0-0.55-0.036-0.77-0.109
		c-0.221-0.073-0.426-0.205-0.616-0.396c-0.396-0.396-0.594-1.127-0.594-2.193c0-1.067,0.178-1.837,0.534-2.311
		c0.354-0.473,0.943-0.709,1.766-0.709c0.425,0,0.876,0.049,1.354,0.144v-2.431H159.33z M156.471,63.296
		c0.131,0.052,0.303,0.077,0.512,0.077s0.443-0.035,0.703-0.104c0.26-0.069,0.465-0.139,0.61-0.205l0.22-0.099v-3.729
		c-0.47-0.088-0.906-0.131-1.309-0.131c-0.559,0-0.946,0.178-1.166,0.533c-0.221,0.355-0.33,0.907-0.33,1.655
		c0,0.851,0.128,1.423,0.385,1.716C156.213,63.15,156.338,63.245,156.471,63.296z"/>
	<path fill="#3C3C3C" d="M163.488,64v-7.611h4.554v0.747h-3.707v2.97h3.136v0.748h-3.136V64H163.488z"/>
	<path fill="#3C3C3C" d="M172.65,60.162v2.816c0.021,0.271,0.234,0.433,0.638,0.483l-0.033,0.649c-0.579,0-1.017-0.146-1.31-0.44
		c-0.659,0.293-1.319,0.44-1.979,0.44c-0.506,0-0.891-0.144-1.155-0.43c-0.264-0.285-0.396-0.697-0.396-1.231
		c0-0.536,0.136-0.931,0.407-1.183c0.271-0.254,0.695-0.41,1.275-0.469l1.728-0.165v-0.473c0-0.374-0.081-0.642-0.242-0.804
		c-0.161-0.16-0.381-0.241-0.66-0.241c-0.587,0-1.196,0.036-1.825,0.11l-0.342,0.032l-0.033-0.627
		c0.807-0.161,1.521-0.241,2.146-0.241c0.623,0,1.075,0.143,1.358,0.428C172.509,59.105,172.65,59.553,172.65,60.162z
		 M169.264,62.404c0,0.676,0.277,1.013,0.836,1.013c0.498,0,0.989-0.084,1.474-0.253l0.253-0.088v-1.815l-1.628,0.154
		c-0.33,0.028-0.568,0.125-0.716,0.286C169.336,61.863,169.264,62.098,169.264,62.404z"/>
	<path fill="#3C3C3C" d="M177.71,58.5h0.825V64h-0.825v-0.385c-0.55,0.33-1.093,0.494-1.628,0.494c-0.748,0-1.245-0.193-1.491-0.582
		c-0.245-0.389-0.368-1.107-0.368-2.156V58.5h0.824v2.859c0,0.8,0.07,1.336,0.209,1.606s0.455,0.407,0.946,0.407
		c0.241,0,0.487-0.035,0.737-0.104c0.248-0.07,0.439-0.139,0.572-0.205l0.197-0.099L177.71,58.5L177.71,58.5z"/>
	<path fill="#3C3C3C" d="M180.186,64v-7.898h0.824V64H180.186z"/>
	<path fill="#3C3C3C" d="M185.509,59.215h-1.749v2.629c0,0.631,0.045,1.045,0.137,1.243s0.311,0.297,0.655,0.297l0.979-0.065
		L185.586,64c-0.49,0.081-0.865,0.121-1.122,0.121c-0.571,0-0.968-0.139-1.188-0.418c-0.219-0.279-0.33-0.811-0.33-1.596v-2.893
		h-0.78V58.5h0.78v-1.684h0.814V58.5h1.749V59.215L185.509,59.215z"/>
</g>
<g>
	<path fill="#3C3C3C" d="M118.731,83.527c-0.755,0.154-1.434,0.231-2.035,0.231c-0.602,0-1.087-0.083-1.458-0.248
		c-0.371-0.165-0.656-0.422-0.858-0.77c-0.202-0.349-0.341-0.748-0.418-1.199s-0.116-1.015-0.116-1.688s0.039-1.24,0.116-1.699
		s0.216-0.863,0.418-1.215c0.202-0.353,0.486-0.609,0.853-0.771c0.366-0.162,0.843-0.242,1.43-0.242s1.276,0.08,2.068,0.242
		l-0.033,0.715c-0.741-0.133-1.401-0.198-1.98-0.198c-0.807,0-1.34,0.24-1.601,0.722c-0.261,0.481-0.391,1.3-0.391,2.458
		c0,0.578,0.024,1.045,0.072,1.396c0.047,0.353,0.141,0.67,0.28,0.951c0.139,0.282,0.343,0.484,0.611,0.605
		c0.268,0.119,0.66,0.181,1.177,0.181c0.517,0,1.127-0.065,1.832-0.197L118.731,83.527z"/>
	<path fill="#3C3C3C" d="M119.93,83.648v-5.5h0.814v0.748c0.638-0.439,1.309-0.729,2.013-0.869v0.837
		c-0.308,0.059-0.629,0.149-0.962,0.274c-0.334,0.125-0.589,0.234-0.765,0.33l-0.275,0.143v4.037H119.93z"/>
	<path fill="#3C3C3C" d="M123.384,80.889c0-1.005,0.18-1.729,0.539-2.179c0.359-0.446,0.966-0.671,1.821-0.671
		c0.854,0,1.459,0.225,1.815,0.671c0.355,0.448,0.533,1.174,0.533,2.179c0,1.006-0.168,1.734-0.506,2.188
		c-0.337,0.455-0.953,0.683-1.848,0.683s-1.511-0.228-1.848-0.683C123.553,82.623,123.384,81.895,123.384,80.889z M124.231,80.872
		c0,0.803,0.097,1.366,0.292,1.688c0.195,0.321,0.601,0.482,1.221,0.482c0.62,0,1.024-0.159,1.215-0.479
		c0.19-0.318,0.286-0.881,0.286-1.688c0-0.806-0.106-1.36-0.319-1.666c-0.212-0.306-0.606-0.456-1.182-0.456
		c-0.576,0-0.972,0.15-1.188,0.456C124.339,79.516,124.231,80.068,124.231,80.872z"/>
	<path fill="#3C3C3C" d="M131.161,78.775c-0.799,0-1.199,0.279-1.199,0.836c0,0.258,0.092,0.438,0.275,0.546
		c0.183,0.106,0.601,0.216,1.254,0.329c0.651,0.113,1.114,0.272,1.386,0.479c0.271,0.205,0.407,0.591,0.407,1.154
		c0,0.565-0.183,0.979-0.544,1.243c-0.363,0.264-0.893,0.396-1.59,0.396c-0.456,0-0.99-0.052-1.606-0.153l-0.33-0.056l0.044-0.716
		c0.836,0.125,1.466,0.188,1.893,0.188c0.426,0,0.75-0.066,0.974-0.203c0.224-0.135,0.335-0.362,0.335-0.683
		c0-0.317-0.096-0.534-0.286-0.647c-0.19-0.114-0.608-0.223-1.254-0.325c-0.645-0.103-1.104-0.253-1.375-0.45
		s-0.407-0.564-0.407-1.102c0-0.535,0.188-0.93,0.566-1.188c0.377-0.257,0.849-0.386,1.414-0.386c0.447,0,1.008,0.052,1.683,0.153
		l0.308,0.056l-0.021,0.704C132.271,78.835,131.63,78.775,131.161,78.775z"/>
	<path fill="#3C3C3C" d="M136.275,78.775c-0.799,0-1.198,0.279-1.198,0.836c0,0.258,0.092,0.438,0.274,0.546
		c0.184,0.106,0.602,0.216,1.254,0.329s1.115,0.272,1.387,0.479c0.271,0.205,0.406,0.591,0.406,1.154
		c0,0.565-0.182,0.979-0.543,1.243c-0.363,0.264-0.894,0.396-1.59,0.396c-0.455,0-0.99-0.052-1.606-0.153l-0.33-0.056l0.044-0.716
		c0.836,0.125,1.466,0.188,1.893,0.188c0.426,0,0.75-0.066,0.973-0.203c0.225-0.135,0.336-0.362,0.336-0.683
		c0-0.317-0.096-0.534-0.286-0.647c-0.19-0.114-0.608-0.223-1.254-0.325s-1.104-0.253-1.375-0.45s-0.407-0.564-0.407-1.102
		c0-0.535,0.188-0.93,0.566-1.188c0.377-0.257,0.849-0.386,1.414-0.386c0.447,0,1.008,0.052,1.683,0.153l0.308,0.056l-0.021,0.704
		C137.387,78.835,136.746,78.775,136.275,78.775z"/>
	<path fill="#3C3C3C" d="M139.51,81.01v-0.771h3.333v0.771H139.51z"/>
	<path fill="#3C3C3C" d="M146.318,76.664c-1.1,0-1.649,0.415-1.649,1.243c0,0.462,0.126,0.778,0.379,0.952
		c0.253,0.172,0.767,0.345,1.54,0.517s1.322,0.396,1.645,0.671s0.484,0.729,0.484,1.357c0,1.563-0.811,2.344-2.431,2.344
		c-0.535,0-1.207-0.063-2.013-0.188l-0.396-0.055l0.088-0.704c0.997,0.132,1.756,0.197,2.277,0.197c1.085,0,1.628-0.509,1.628-1.528
		c0-0.41-0.119-0.705-0.356-0.886c-0.238-0.181-0.685-0.332-1.337-0.456c-0.858-0.184-1.467-0.42-1.825-0.71
		c-0.359-0.29-0.539-0.774-0.539-1.457c0-1.364,0.817-2.047,2.453-2.047c0.534,0,1.176,0.056,1.924,0.166l0.375,0.055l-0.078,0.716
		C147.467,76.727,146.745,76.664,146.318,76.664z"/>
	<path fill="#3C3C3C" d="M153.777,82.968l0.318-0.032l0.022,0.647c-0.836,0.117-1.552,0.177-2.146,0.177
		c-0.791,0-1.353-0.229-1.683-0.688s-0.495-1.172-0.495-2.141c0-1.929,0.768-2.894,2.299-2.894c0.741,0,1.295,0.208,1.661,0.622
		c0.367,0.414,0.55,1.064,0.55,1.951l-0.044,0.628h-3.63c0,0.608,0.11,1.06,0.33,1.354c0.221,0.294,0.604,0.439,1.15,0.439
		C152.657,83.033,153.212,83.012,153.777,82.968z M153.48,80.58c0-0.674-0.108-1.15-0.324-1.43
		c-0.217-0.279-0.568-0.418-1.057-0.418s-0.854,0.146-1.1,0.439c-0.246,0.293-0.372,0.764-0.379,1.407L153.48,80.58L153.48,80.58z"
		/>
	<path fill="#3C3C3C" d="M157.648,78.039c0.242,0,0.652,0.044,1.232,0.133l0.264,0.032l-0.033,0.671
		c-0.586-0.064-1.02-0.1-1.297-0.1c-0.625,0-1.047,0.148-1.271,0.445s-0.335,0.848-0.335,1.65c0,0.802,0.104,1.361,0.313,1.678
		s0.644,0.473,1.303,0.473l1.298-0.099l0.032,0.683c-0.682,0.103-1.191,0.153-1.528,0.153c-0.858,0-1.45-0.221-1.776-0.659
		c-0.326-0.44-0.49-1.184-0.49-2.229s0.177-1.778,0.529-2.2C156.24,78.249,156.828,78.039,157.648,78.039z"/>
	<path fill="#3C3C3C" d="M163.236,78.864h-1.748v2.629c0,0.631,0.045,1.045,0.137,1.243c0.092,0.197,0.311,0.297,0.654,0.297
		l0.979-0.065l0.056,0.683c-0.491,0.08-0.865,0.121-1.123,0.121c-0.571,0-0.967-0.141-1.188-0.418
		c-0.22-0.278-0.33-0.812-0.33-1.596v-2.895h-0.781v-0.715h0.781v-1.683h0.814v1.683h1.748V78.864L163.236,78.864z"/>
	<path fill="#3C3C3C" d="M164.249,76.906v-0.957h0.825v0.957H164.249z M164.249,83.648v-5.5h0.825v5.5H164.249z"/>
	<path fill="#3C3C3C" d="M166.416,80.889c0-1.005,0.18-1.729,0.539-2.179c0.359-0.446,0.966-0.671,1.82-0.671
		s1.459,0.225,1.815,0.671c0.354,0.448,0.533,1.174,0.533,2.179c0,1.006-0.168,1.734-0.506,2.188
		c-0.337,0.455-0.953,0.683-1.849,0.683c-0.895,0-1.511-0.228-1.848-0.683C166.584,82.623,166.416,81.895,166.416,80.889z
		 M167.264,80.872c0,0.803,0.096,1.366,0.291,1.688c0.195,0.321,0.602,0.482,1.221,0.482c0.621,0,1.024-0.159,1.216-0.479
		c0.19-0.318,0.286-0.881,0.286-1.688c0-0.806-0.106-1.36-0.319-1.666c-0.212-0.306-0.606-0.456-1.183-0.456
		c-0.575,0-0.971,0.15-1.188,0.456S167.264,80.068,167.264,80.872z"/>
	<path fill="#3C3C3C" d="M173.291,83.648h-0.825v-5.5h0.813v0.386c0.595-0.33,1.162-0.495,1.705-0.495
		c0.733,0,1.228,0.197,1.479,0.595c0.253,0.396,0.379,1.101,0.379,2.111v2.903h-0.813v-2.881c0-0.764-0.075-1.285-0.227-1.567
		c-0.15-0.282-0.471-0.425-0.962-0.425c-0.235,0-0.481,0.035-0.743,0.104c-0.26,0.07-0.459,0.138-0.599,0.203l-0.209,0.101
		L173.291,83.648L173.291,83.648z"/>
	<path fill="#3C3C3C" d="M185.126,83.648h-4.19v-7.611h0.847v6.854h3.344V83.648z"/>
	<path fill="#3C3C3C" d="M186.061,76.906v-0.957h0.826v0.957H186.061z M186.061,83.648v-5.5h0.826v5.5H186.061z"/>
	<path fill="#3C3C3C" d="M189.295,83.648h-0.824v-5.5h0.813v0.386c0.594-0.33,1.161-0.495,1.704-0.495
		c0.734,0,1.228,0.197,1.479,0.595c0.253,0.396,0.38,1.101,0.38,2.111v2.903h-0.814v-2.881c0-0.764-0.075-1.285-0.227-1.567
		c-0.15-0.282-0.471-0.425-0.961-0.425c-0.236,0-0.482,0.035-0.744,0.104c-0.26,0.07-0.459,0.138-0.599,0.203l-0.209,0.101
		L189.295,83.648L189.295,83.648z"/>
	<path fill="#3C3C3C" d="M198.117,82.968l0.318-0.032l0.022,0.647c-0.836,0.117-1.551,0.177-2.146,0.177
		c-0.791,0-1.353-0.229-1.683-0.688s-0.495-1.172-0.495-2.141c0-1.929,0.768-2.894,2.299-2.894c0.741,0,1.295,0.208,1.662,0.622
		c0.366,0.414,0.549,1.064,0.549,1.951l-0.043,0.628h-3.631c0,0.608,0.11,1.06,0.33,1.354c0.221,0.294,0.604,0.439,1.15,0.439
		C196.997,83.033,197.552,83.012,198.117,82.968z M197.82,80.58c0-0.674-0.108-1.15-0.324-1.43
		c-0.217-0.279-0.568-0.418-1.057-0.418c-0.487,0-0.854,0.146-1.1,0.439c-0.246,0.293-0.372,0.764-0.379,1.407L197.82,80.58
		L197.82,80.58z"/>
	<path fill="#3C3C3C" d="M201.659,78.775c-0.8,0-1.199,0.279-1.199,0.836c0,0.258,0.092,0.438,0.274,0.546
		c0.184,0.106,0.602,0.216,1.254,0.329s1.115,0.272,1.387,0.479c0.271,0.205,0.407,0.591,0.407,1.154
		c0,0.565-0.183,0.979-0.544,1.243c-0.363,0.264-0.894,0.396-1.59,0.396c-0.455,0-0.99-0.052-1.606-0.153l-0.33-0.056l0.044-0.716
		c0.836,0.125,1.467,0.188,1.893,0.188s0.75-0.066,0.974-0.203c0.224-0.135,0.335-0.362,0.335-0.683
		c0-0.317-0.096-0.534-0.286-0.647c-0.19-0.114-0.608-0.223-1.254-0.325s-1.104-0.253-1.375-0.45s-0.407-0.564-0.407-1.102
		c0-0.535,0.188-0.93,0.566-1.188c0.377-0.257,0.849-0.386,1.414-0.386c0.447,0,1.008,0.052,1.683,0.153l0.308,0.056l-0.021,0.704
		C202.77,78.835,202.128,78.775,201.659,78.775z"/>
</g>
<g>
	<path fill="#3C3C3C" d="M88.117,19.125V9.075h5.175l0.78,3.84l0.645-3.84h5.325v10.05h-3.48V13.95h-0.165l-0.87,5.07h-2.91
		l-0.855-5.07h-0.165v5.175H88.117z"/>
	<path fill="#3C3C3C" d="M108.261,13.995v2.85c0.09,0.07,0.21,0.125,0.36,0.165l-0.045,2.13c-0.78,0.12-1.315,0.18-1.605,0.18
		s-0.555-0.042-0.795-0.127c-0.24-0.085-0.4-0.172-0.48-0.262l-0.12-0.135c-0.62,0.35-1.373,0.525-2.257,0.525
		c-0.885,0-1.553-0.202-2.002-0.607c-0.45-0.405-0.675-1.058-0.675-1.958c0-0.9,0.255-1.502,0.765-1.808
		c0.51-0.305,1.315-0.477,2.415-0.517l1.08-0.045V14.25c0-0.19-0.21-0.285-0.63-0.285c-0.91,0-1.82,0.05-2.73,0.15l-0.495,0.045
		l-0.075-2.28c1.32-0.35,2.525-0.525,3.615-0.525c1.14,0,2.025,0.17,2.655,0.51C107.921,12.225,108.261,12.935,108.261,13.995z
		 M104.331,17.01c0.19,0,0.38-0.075,0.57-0.225V16.23l-0.51,0.03c-0.26,0.021-0.39,0.15-0.39,0.39
		C104.001,16.89,104.111,17.01,104.331,17.01z"/>
	<path fill="#3C3C3C" d="M114.186,11.355c1.06,0,1.82,0.34,2.28,1.02s0.69,1.693,0.69,3.038c0,1.345-0.253,2.333-0.757,2.962
		c-0.505,0.63-1.353,0.945-2.543,0.945c-0.24,0-0.58-0.05-1.02-0.15l-0.21-0.045v2.925h-3.36v-10.5h3.315l0.03,0.39
		C113.101,11.55,113.626,11.355,114.186,11.355z M113.106,16.605c0.44,0,0.66-0.44,0.66-1.32c0-0.47-0.05-0.79-0.15-0.96
		c-0.1-0.17-0.27-0.255-0.51-0.255l-0.48,0.105v2.385C112.756,16.59,112.916,16.605,113.106,16.605z"/>
	<path fill="#3C3C3C" d="M127.82,19.125h-6.75V9.075h3.48v7.215h3.27V19.125z"/>
	<path fill="#3C3C3C" d="M131.541,16.32c0.01,0.35,0.234,0.525,0.675,0.525c1,0,2-0.03,3-0.09l0.585-0.045l0.075,2.175
		c-1.33,0.29-2.651,0.435-3.967,0.435s-2.265-0.302-2.851-0.907c-0.584-0.605-0.877-1.585-0.877-2.94s0.315-2.38,0.945-3.075
		s1.613-1.042,2.948-1.042s2.327,0.285,2.978,0.855c0.65,0.57,0.975,1.445,0.975,2.625l-0.149,1.485L131.541,16.32L131.541,16.32z
		 M132.666,14.49c0-0.29-0.042-0.495-0.127-0.615s-0.232-0.18-0.441-0.18c-0.211,0-0.355,0.06-0.436,0.18s-0.125,0.325-0.135,0.615
		H132.666z"/>
	<path fill="#3C3C3C" d="M137.616,22.065c-0.8-0.26-1.2-0.835-1.2-1.725c0-0.36,0.07-0.68,0.21-0.96c0.14-0.28,0.39-0.56,0.75-0.84
		c-0.36-0.25-0.54-0.625-0.54-1.125c0-0.11,0.072-0.257,0.217-0.442c0.146-0.185,0.293-0.338,0.442-0.458l0.21-0.195
		c-0.811-0.38-1.215-1.1-1.215-2.16s0.287-1.792,0.863-2.198c0.574-0.405,1.526-0.607,2.856-0.607c0.33,0,0.765,0.04,1.306,0.12
		l0.239,0.045l2.774-0.045v1.965h-0.704c0.09,0.25,0.135,0.455,0.135,0.615c0,1.08-0.274,1.802-0.825,2.167
		c-0.55,0.365-1.484,0.547-2.805,0.547c-0.2,0-0.391-0.015-0.57-0.045c-0.039,0.06-0.06,0.12-0.06,0.18c0,0.1,0.59,0.15,1.771,0.15
		c1.18,0,1.978,0.175,2.393,0.525c0.414,0.35,0.623,0.988,0.623,1.913c0,0.925-0.34,1.645-1.021,2.16
		c-0.68,0.515-1.649,0.772-2.909,0.772C139.296,22.425,138.316,22.305,137.616,22.065z M139.161,19.92c0,0.13,0.38,0.195,1.14,0.195
		s1.141-0.081,1.141-0.24c0-0.1-0.065-0.163-0.195-0.188s-0.395-0.038-0.795-0.038l-1.155-0.06
		C139.206,19.64,139.161,19.75,139.161,19.92z M139.775,14.46c0.091,0.08,0.24,0.12,0.451,0.12c0.209,0,0.359-0.04,0.449-0.12
		s0.135-0.22,0.135-0.42s-0.045-0.34-0.135-0.42s-0.24-0.12-0.449-0.12c-0.211,0-0.36,0.04-0.451,0.12
		c-0.09,0.08-0.135,0.22-0.135,0.42S139.686,14.38,139.775,14.46z"/>
	<path fill="#3C3C3C" d="M148.131,16.32c0.01,0.35,0.235,0.525,0.676,0.525c1,0,2-0.03,3-0.09l0.584-0.045l0.075,2.175
		c-1.329,0.29-2.651,0.435-3.967,0.435s-2.265-0.302-2.851-0.907c-0.584-0.605-0.877-1.585-0.877-2.94s0.315-2.38,0.945-3.075
		c0.631-0.695,1.613-1.042,2.948-1.042s2.327,0.285,2.978,0.855c0.65,0.57,0.976,1.445,0.976,2.625l-0.15,1.485L148.131,16.32
		L148.131,16.32z M149.256,14.49c0-0.29-0.042-0.495-0.127-0.615s-0.232-0.18-0.441-0.18c-0.211,0-0.355,0.06-0.436,0.18
		s-0.125,0.325-0.135,0.615H149.256z"/>
	<path fill="#3C3C3C" d="M156.605,19.125h-3.36V11.55h3.345v0.39c0.631-0.39,1.18-0.585,1.65-0.585c1.08,0,1.835,0.292,2.265,0.877
		c0.431,0.585,0.646,1.618,0.646,3.098v3.795h-3.36v-3.57c0-0.87-0.181-1.305-0.54-1.305l-0.645,0.105V19.125z"/>
	<path fill="#3C3C3C" d="M169.625,8.775v10.35h-3.314l-0.031-0.33c-0.549,0.35-1.074,0.525-1.574,0.525
		c-1.1,0-1.87-0.337-2.311-1.012c-0.439-0.675-0.66-1.663-0.66-2.962c0-2.66,1.104-3.99,3.315-3.99l1.216,0.09v-2.67L169.625,8.775
		L169.625,8.775z M165.786,14.07c-0.271,0-0.448,0.11-0.533,0.33c-0.085,0.22-0.127,0.533-0.127,0.938
		c0,0.405,0.045,0.718,0.135,0.938c0.091,0.22,0.271,0.33,0.54,0.33l0.465-0.045v-2.445C166.045,14.085,165.885,14.07,165.786,14.07
		z"/>
</g>
</svg>
