<?xml version="1.0" encoding="utf-8"?>
<!-- Generator: Adobe Illustrator 21.0.0, SVG Export Plug-In . SVG Version: 6.00 Build 0)  -->
<svg version="1.1" id="legendTemplate_xA0_Image_1_"
	 xmlns="http://www.w3.org/2000/svg" xmlns:xlink="http://www.w3.org/1999/xlink" x="0px" y="0px" viewBox="0 0 336.5 169.6"
	 style="enable-background:new 0 0 336.5 169.6;" xml:space="preserve">
<style type="text/css">
	.st0{fill:none;stroke:#000000;stroke-width:2;stroke-linecap:round;stroke-miterlimit:10;}
	.st1{fill:none;stroke:#000000;stroke-width:2;stroke-linecap:round;stroke-miterlimit:10;stroke-dasharray:5,1;}
	.st2{fill:none;stroke:#000000;stroke-width:2;stroke-linecap:round;stroke-miterlimit:10;stroke-dasharray:3,3;}
	.st3{fill:none;stroke:#000000;stroke-width:6;stroke-linecap:round;stroke-miterlimit:10;}
</style>
<image style="display:none;overflow:visible;" width="1336" height="559" id="legendTemplate_xA0_Image" xlink:href="69DCA19B.png"  transform="matrix(0.36 0 0 0.36 0 -31.62)">
</image>
<line class="st0" x1="18.5" y1="52" x2="144.5" y2="52"/>
<g>
	<line class="st0" x1="18.5" y1="76" x2="21" y2="76"/>
	<line class="st1" x1="22" y1="76" x2="141.5" y2="76"/>
	<line class="st0" x1="142" y1="76" x2="144.5" y2="76"/>
</g>
<g>
	<line class="st0" x1="18.5" y1="100" x2="20" y2="100"/>
	<line class="st2" x1="23" y1="100" x2="141.5" y2="100"/>
	<line class="st0" x1="143" y1="100" x2="144.5" y2="100"/>
</g>
<g>
	<path d="M163.1,29V15.3h8.5v1.9h-6.3v4.6h5.2v1.9h-5.2V29H163.1z"/>
	<path d="M180.3,22.1v4.6c0,0.3,0.1,0.5,0.2,0.6c0.1,0.1,0.4,0.2,0.6,0.3l-0.1,1.7c-1.1,0-2-0.2-2.7-0.7c-1.1,0.5-2.1,0.7-3.2,0.7
		c-2,0-3-1.1-3-3.2c0-1,0.3-1.7,0.8-2.2c0.5-0.5,1.4-0.7,2.5-0.8l2.6-0.2v-0.7c0-0.5-0.1-0.9-0.4-1.1c-0.2-0.2-0.6-0.3-1-0.3
		c-0.9,0-1.9,0.1-3.2,0.2l-0.6,0l-0.1-1.5c1.5-0.3,2.8-0.5,4-0.5s2.1,0.3,2.6,0.8C180,20.1,180.3,20.9,180.3,22.1z M175.8,24.6
		c-0.9,0.1-1.4,0.6-1.4,1.5s0.4,1.4,1.2,1.4c0.7,0,1.4-0.1,2.1-0.3l0.4-0.1v-2.7L175.8,24.6z"/>
	<path d="M189.1,19h2.2v10h-2.2v-0.6c-1,0.6-1.9,0.8-2.7,0.8c-1.4,0-2.3-0.4-2.8-1.1c-0.5-0.7-0.7-2-0.7-3.9V19h2.2v5.2
		c0,1.2,0.1,2,0.3,2.4c0.2,0.4,0.7,0.6,1.4,0.6c0.7,0,1.4-0.1,2-0.4l0.3-0.1V19z"/>
	<path d="M194,29V14.8h2.2V29H194z"/>
	<path d="M204.3,20.9h-2.8v4.4c0,0.8,0.1,1.4,0.2,1.6c0.1,0.3,0.4,0.4,0.9,0.4l1.6-0.1l0.1,1.7c-0.9,0.2-1.6,0.3-2,0.3
		c-1.1,0-1.9-0.3-2.3-0.8s-0.6-1.5-0.6-2.9v-4.6h-1.3V19h1.3v-2.9h2.2V19h2.8V20.9z"/>
	<path d="M213.1,21.1c-1.6-0.2-2.7-0.3-3.4-0.3s-1.2,0.1-1.5,0.3c-0.3,0.2-0.4,0.4-0.4,0.8c0,0.4,0.1,0.6,0.5,0.8
		c0.3,0.1,1,0.3,2.1,0.5c1.1,0.2,1.9,0.5,2.4,0.9c0.5,0.4,0.7,1.1,0.7,2.2s-0.3,1.8-1,2.3c-0.7,0.5-1.7,0.7-2.9,0.7
		c-0.8,0-1.8-0.1-3.1-0.3l-0.6-0.1l0.1-1.8c1.6,0.2,2.8,0.3,3.5,0.3c0.7,0,1.2-0.1,1.5-0.3c0.3-0.2,0.4-0.5,0.4-0.9
		c0-0.4-0.1-0.7-0.4-0.8s-1-0.3-2.1-0.5c-1.1-0.2-1.9-0.5-2.4-0.9c-0.5-0.4-0.8-1.1-0.8-2.1c0-1,0.4-1.8,1.1-2.3
		c0.7-0.5,1.6-0.8,2.7-0.8c0.9,0,1.9,0.1,3.1,0.3l0.6,0.1L213.1,21.1z"/>
</g>
<g>
	<path d="M162,46.9h1.3l1.9,10h0.5l2.3-9.9h1.4l2.3,9.9h0.5l1.9-10h1.3L172.9,58h-2.3l-2.1-9.5l-2.1,9.5h-2.3L162,46.9z"/>
	<path d="M181.9,57l0.5,0l0,0.9c-1.2,0.2-2.3,0.3-3.1,0.3c-1.2,0-2-0.3-2.4-1s-0.7-1.7-0.7-3.1c0-2.8,1.1-4.2,3.3-4.2
		c1.1,0,1.9,0.3,2.4,0.9c0.5,0.6,0.8,1.5,0.8,2.8l-0.1,0.9h-5.3c0,0.9,0.2,1.5,0.5,2c0.3,0.4,0.9,0.6,1.7,0.6
		C180.3,57.1,181.1,57.1,181.9,57z M181.5,53.5c0-1-0.2-1.7-0.5-2.1c-0.3-0.4-0.8-0.6-1.5-0.6s-1.2,0.2-1.6,0.6
		c-0.4,0.4-0.5,1.1-0.6,2H181.5z"/>
	<path d="M184.7,58V46.5h1.2V58H184.7z"/>
	<path d="M188.4,58V46.5h1.2V58H188.4z"/>
	<path d="M191.9,54.2V53h4.8v1.1H191.9z"/>
	<path d="M199.1,58V46.5h1.2V58H199.1z"/>
	<path d="M202.3,54c0-1.5,0.3-2.5,0.8-3.2c0.5-0.7,1.4-1,2.6-1s2.1,0.3,2.6,1c0.5,0.7,0.8,1.7,0.8,3.2c0,1.5-0.2,2.5-0.7,3.2
		c-0.5,0.7-1.4,1-2.7,1c-1.3,0-2.2-0.3-2.7-1C202.6,56.5,202.3,55.4,202.3,54z M203.5,54c0,1.2,0.1,2,0.4,2.5
		c0.3,0.5,0.9,0.7,1.8,0.7s1.5-0.2,1.8-0.7c0.3-0.5,0.4-1.3,0.4-2.5c0-1.2-0.2-2-0.5-2.4c-0.3-0.4-0.9-0.7-1.7-0.7s-1.4,0.2-1.7,0.7
		C203.7,52,203.5,52.8,203.5,54z"/>
	<path d="M214.1,49.8c0.4,0,0.9,0.1,1.8,0.2l0.4,0l0,1c-0.9-0.1-1.5-0.1-1.9-0.1c-0.9,0-1.5,0.2-1.8,0.6S212,52.8,212,54
		s0.2,2,0.5,2.4c0.3,0.5,0.9,0.7,1.9,0.7l1.9-0.1l0,1c-1,0.1-1.7,0.2-2.2,0.2c-1.2,0-2.1-0.3-2.6-1c-0.5-0.6-0.7-1.7-0.7-3.2
		s0.3-2.6,0.8-3.2C212.1,50.1,212.9,49.8,214.1,49.8z"/>
	<path d="M223.7,52.4v4.1c0,0.4,0.3,0.6,0.9,0.7l0,0.9c-0.8,0-1.5-0.2-1.9-0.6c-1,0.4-1.9,0.6-2.9,0.6c-0.7,0-1.3-0.2-1.7-0.6
		s-0.6-1-0.6-1.8s0.2-1.4,0.6-1.7c0.4-0.4,1-0.6,1.9-0.7l2.5-0.2v-0.7c0-0.5-0.1-0.9-0.4-1.2c-0.2-0.2-0.6-0.4-1-0.4
		c-0.9,0-1.7,0.1-2.7,0.2l-0.5,0l0-0.9c1.2-0.2,2.2-0.4,3.1-0.4c0.9,0,1.6,0.2,2,0.6C223.5,50.9,223.7,51.5,223.7,52.4z M218.8,55.7
		c0,1,0.4,1.5,1.2,1.5c0.7,0,1.4-0.1,2.1-0.4l0.4-0.1V54l-2.4,0.2c-0.5,0-0.8,0.2-1,0.4C218.9,54.9,218.8,55.2,218.8,55.7z"/>
	<path d="M230.2,51h-2.5v3.8c0,0.9,0.1,1.5,0.2,1.8c0.1,0.3,0.5,0.4,1,0.4l1.4-0.1l0.1,1c-0.7,0.1-1.3,0.2-1.6,0.2
		c-0.8,0-1.4-0.2-1.7-0.6c-0.3-0.4-0.5-1.2-0.5-2.3V51h-1.1v-1h1.1v-2.4h1.2V50h2.5V51z"/>
	<path d="M237.2,57l0.5,0l0,0.9c-1.2,0.2-2.3,0.3-3.1,0.3c-1.2,0-2-0.3-2.4-1c-0.5-0.7-0.7-1.7-0.7-3.1c0-2.8,1.1-4.2,3.3-4.2
		c1.1,0,1.9,0.3,2.4,0.9s0.8,1.5,0.8,2.8l-0.1,0.9h-5.3c0,0.9,0.2,1.5,0.5,2c0.3,0.4,0.9,0.6,1.7,0.6S236.3,57.1,237.2,57z
		 M236.7,53.5c0-1-0.2-1.7-0.5-2.1c-0.3-0.4-0.8-0.6-1.5-0.6c-0.7,0-1.2,0.2-1.6,0.6c-0.4,0.4-0.5,1.1-0.6,2H236.7z"/>
	<path d="M245.9,46.5V58h-1.2v-0.5c-0.8,0.5-1.6,0.7-2.4,0.7c-0.4,0-0.8-0.1-1.1-0.2c-0.3-0.1-0.6-0.3-0.9-0.6
		c-0.6-0.6-0.9-1.6-0.9-3.2c0-1.6,0.3-2.7,0.8-3.4c0.5-0.7,1.4-1,2.6-1c0.6,0,1.3,0.1,2,0.2v-3.5H245.9z M241.8,57
		c0.2,0.1,0.4,0.1,0.7,0.1s0.6-0.1,1-0.2c0.4-0.1,0.7-0.2,0.9-0.3l0.3-0.1v-5.4c-0.7-0.1-1.3-0.2-1.9-0.2c-0.8,0-1.4,0.3-1.7,0.8
		c-0.3,0.5-0.5,1.3-0.5,2.4c0,1.2,0.2,2.1,0.6,2.5C241.4,56.8,241.6,56.9,241.8,57z"/>
</g>
<g>
	<path d="M161.9,81l3-11.1h2.7l3,11.1h-1.2l-0.8-2.8h-4.7l-0.8,2.8H161.9z M165.8,71l-1.7,6.1h4.2l-1.7-6.1H165.8z"/>
	<path d="M172.2,84.6V73h1.2v0.6c0.8-0.5,1.6-0.7,2.4-0.7c1,0,1.7,0.3,2.2,1c0.5,0.6,0.7,1.7,0.7,3.2s-0.3,2.5-0.8,3.2
		c-0.5,0.6-1.4,1-2.7,1c-0.7,0-1.2-0.1-1.8-0.2v3.6H172.2z M175.6,73.9c-0.3,0-0.7,0.1-1,0.2c-0.4,0.1-0.7,0.2-0.9,0.3l-0.3,0.2v5.4
		c0.8,0.1,1.3,0.2,1.7,0.2c0.9,0,1.5-0.2,1.8-0.7c0.3-0.5,0.5-1.3,0.5-2.4s-0.2-1.9-0.5-2.4S176.2,73.9,175.6,73.9z"/>
	<path d="M180.6,84.6V73h1.2v0.6c0.8-0.5,1.6-0.7,2.4-0.7c1,0,1.7,0.3,2.2,1c0.5,0.6,0.7,1.7,0.7,3.2s-0.3,2.5-0.8,3.2
		c-0.5,0.6-1.4,1-2.7,1c-0.7,0-1.2-0.1-1.8-0.2v3.6H180.6z M184,73.9c-0.3,0-0.7,0.1-1,0.2c-0.4,0.1-0.7,0.2-0.9,0.3l-0.3,0.2v5.4
		c0.8,0.1,1.3,0.2,1.7,0.2c0.9,0,1.5-0.2,1.8-0.7c0.3-0.5,0.5-1.3,0.5-2.4s-0.2-1.9-0.5-2.4S184.6,73.9,184,73.9z"/>
	<path d="M189,81v-8h1.2v1.1c0.9-0.6,1.9-1.1,2.9-1.3V74c-0.4,0.1-0.9,0.2-1.4,0.4c-0.5,0.2-0.9,0.3-1.1,0.5l-0.4,0.2V81H189z"/>
	<path d="M194.1,77c0-1.5,0.3-2.5,0.8-3.2c0.5-0.7,1.4-1,2.6-1c1.2,0,2.1,0.3,2.6,1c0.5,0.7,0.8,1.7,0.8,3.2c0,1.5-0.2,2.5-0.7,3.2
		c-0.5,0.7-1.4,1-2.7,1c-1.3,0-2.2-0.3-2.7-1C194.3,79.5,194.1,78.4,194.1,77z M195.3,77c0,1.2,0.1,2,0.4,2.5
		c0.3,0.5,0.9,0.7,1.8,0.7c0.9,0,1.5-0.2,1.8-0.7s0.4-1.3,0.4-2.5c0-1.2-0.2-2-0.5-2.4s-0.9-0.7-1.7-0.7c-0.8,0-1.4,0.2-1.7,0.7
		S195.3,75.8,195.3,77z"/>
	<path d="M201.9,73h1.3l2,3.1l2-3.1h1.3l-2.5,4l2.5,4h-1.3l-1.9-3.1l-2,3.1h-1.3l2.5-4L201.9,73z"/>
	<path d="M209.9,71.2v-1.4h1.2v1.4H209.9z M209.9,81v-8h1.2v8H209.9z"/>
	<path d="M214.6,81h-1.2v-8h1.2v0.6c0.8-0.5,1.6-0.7,2.3-0.7c1,0,1.7,0.3,2.1,0.8c0.4-0.2,0.8-0.4,1.4-0.6c0.6-0.2,1.1-0.2,1.5-0.2
		c1.1,0,1.8,0.3,2.2,0.9s0.6,1.6,0.6,3.1V81h-1.2v-4.2c0-1.1-0.1-1.9-0.3-2.3c-0.2-0.4-0.7-0.6-1.4-0.6c-0.4,0-0.7,0.1-1.1,0.2
		c-0.4,0.1-0.7,0.2-0.9,0.3l-0.3,0.1c0.1,0.4,0.2,1.1,0.2,2.3V81h-1.2v-4.1c0-1.2-0.1-1.9-0.3-2.3c-0.2-0.4-0.7-0.6-1.4-0.6
		c-0.3,0-0.7,0.1-1,0.2c-0.4,0.1-0.6,0.2-0.8,0.3l-0.3,0.1V81z"/>
	<path d="M232.4,75.4v4.1c0,0.4,0.3,0.6,0.9,0.7l0,0.9c-0.8,0-1.5-0.2-1.9-0.6c-1,0.4-1.9,0.6-2.9,0.6c-0.7,0-1.3-0.2-1.7-0.6
		s-0.6-1-0.6-1.8s0.2-1.4,0.6-1.7c0.4-0.4,1-0.6,1.9-0.7l2.5-0.2v-0.7c0-0.5-0.1-0.9-0.4-1.2s-0.6-0.4-1-0.4c-0.9,0-1.7,0.1-2.7,0.2
		l-0.5,0l0-0.9c1.2-0.2,2.2-0.4,3.1-0.4c0.9,0,1.6,0.2,2,0.6C232.2,73.9,232.4,74.5,232.4,75.4z M227.5,78.7c0,1,0.4,1.5,1.2,1.5
		c0.7,0,1.4-0.1,2.1-0.4l0.4-0.1V77l-2.4,0.2c-0.5,0-0.8,0.2-1,0.4C227.6,77.9,227.5,78.2,227.5,78.7z"/>
	<path d="M238.9,74h-2.5v3.8c0,0.9,0.1,1.5,0.2,1.8c0.1,0.3,0.5,0.4,1,0.4L239,80l0.1,1c-0.7,0.1-1.3,0.2-1.6,0.2
		c-0.8,0-1.4-0.2-1.7-0.6s-0.5-1.2-0.5-2.3V74h-1.1v-1h1.1v-2.4h1.2V73h2.5V74z"/>
	<path d="M245.8,80l0.5,0l0,0.9c-1.2,0.2-2.3,0.3-3.1,0.3c-1.2,0-2-0.3-2.4-1c-0.5-0.7-0.7-1.7-0.7-3.1c0-2.8,1.1-4.2,3.3-4.2
		c1.1,0,1.9,0.3,2.4,0.9s0.8,1.5,0.8,2.8l-0.1,0.9h-5.3c0,0.9,0.2,1.5,0.5,2s0.9,0.6,1.7,0.6S245,80.1,245.8,80z M245.4,76.5
		c0-1-0.2-1.7-0.5-2.1c-0.3-0.4-0.8-0.6-1.5-0.6c-0.7,0-1.2,0.2-1.6,0.6s-0.5,1.1-0.6,2H245.4z"/>
	<path d="M248.6,81V69.5h1.2V81H248.6z"/>
	<path d="M251.4,73h1.2l2,7h0.5l2-7h1.2L255,84.6h-1.2l1-3.6h-1.2L251.4,73z"/>
	<path d="M259.6,77.2V76h4.8v1.1H259.6z"/>
	<path d="M266.8,81V69.5h1.2V81H266.8z"/>
	<path d="M270,77c0-1.5,0.3-2.5,0.8-3.2c0.5-0.7,1.4-1,2.6-1c1.2,0,2.1,0.3,2.6,1c0.5,0.7,0.8,1.7,0.8,3.2c0,1.5-0.2,2.5-0.7,3.2
		c-0.5,0.7-1.4,1-2.7,1c-1.3,0-2.2-0.3-2.7-1C270.3,79.5,270,78.4,270,77z M271.3,77c0,1.2,0.1,2,0.4,2.5c0.3,0.5,0.9,0.7,1.8,0.7
		c0.9,0,1.5-0.2,1.8-0.7s0.4-1.3,0.4-2.5c0-1.2-0.2-2-0.5-2.4s-0.9-0.7-1.7-0.7c-0.8,0-1.4,0.2-1.7,0.7S271.3,75.8,271.3,77z"/>
	<path d="M281.8,72.8c0.4,0,0.9,0.1,1.8,0.2l0.4,0l0,1c-0.9-0.1-1.5-0.1-1.9-0.1c-0.9,0-1.5,0.2-1.8,0.6c-0.3,0.4-0.5,1.2-0.5,2.4
		s0.2,2,0.5,2.4c0.3,0.5,0.9,0.7,1.9,0.7l1.9-0.1l0,1c-1,0.1-1.7,0.2-2.2,0.2c-1.2,0-2.1-0.3-2.6-1c-0.5-0.6-0.7-1.7-0.7-3.2
		c0-1.5,0.3-2.6,0.8-3.2S280.6,72.8,281.8,72.8z"/>
	<path d="M291.5,75.4v4.1c0,0.4,0.3,0.6,0.9,0.7l0,0.9c-0.8,0-1.5-0.2-1.9-0.6c-1,0.4-1.9,0.6-2.9,0.6c-0.7,0-1.3-0.2-1.7-0.6
		s-0.6-1-0.6-1.8s0.2-1.4,0.6-1.7c0.4-0.4,1-0.6,1.9-0.7l2.5-0.2v-0.7c0-0.5-0.1-0.9-0.4-1.2s-0.6-0.4-1-0.4c-0.9,0-1.7,0.1-2.7,0.2
		l-0.5,0l0-0.9c1.2-0.2,2.2-0.4,3.1-0.4c0.9,0,1.6,0.2,2,0.6C291.3,73.9,291.5,74.5,291.5,75.4z M286.5,78.7c0,1,0.4,1.5,1.2,1.5
		c0.7,0,1.4-0.1,2.1-0.4l0.4-0.1V77l-2.4,0.2c-0.5,0-0.8,0.2-1,0.4C286.6,77.9,286.5,78.2,286.5,78.7z"/>
	<path d="M298,74h-2.5v3.8c0,0.9,0.1,1.5,0.2,1.8c0.1,0.3,0.5,0.4,1,0.4L298,80l0.1,1c-0.7,0.1-1.3,0.2-1.6,0.2
		c-0.8,0-1.4-0.2-1.7-0.6s-0.5-1.2-0.5-2.3V74h-1.1v-1h1.1v-2.4h1.2V73h2.5V74z"/>
	<path d="M304.9,80l0.5,0l0,0.9c-1.2,0.2-2.3,0.3-3.1,0.3c-1.2,0-2-0.3-2.4-1c-0.5-0.7-0.7-1.7-0.7-3.1c0-2.8,1.1-4.2,3.3-4.2
		c1.1,0,1.9,0.3,2.4,0.9s0.8,1.5,0.8,2.8l-0.1,0.9h-5.3c0,0.9,0.2,1.5,0.5,2s0.9,0.6,1.7,0.6S304.1,80.1,304.9,80z M304.5,76.5
		c0-1-0.2-1.7-0.5-2.1c-0.3-0.4-0.8-0.6-1.5-0.6c-0.7,0-1.2,0.2-1.6,0.6s-0.5,1.1-0.6,2H304.5z"/>
	<path d="M313.7,69.5V81h-1.2v-0.5c-0.8,0.5-1.6,0.7-2.4,0.7c-0.4,0-0.8-0.1-1.1-0.2c-0.3-0.1-0.6-0.3-0.9-0.6
		c-0.6-0.6-0.9-1.6-0.9-3.2c0-1.6,0.3-2.7,0.8-3.4c0.5-0.7,1.4-1,2.6-1c0.6,0,1.3,0.1,2,0.2v-3.5H313.7z M309.5,80
		c0.2,0.1,0.4,0.1,0.7,0.1s0.6-0.1,1-0.2c0.4-0.1,0.7-0.2,0.9-0.3l0.3-0.1v-5.4c-0.7-0.1-1.3-0.2-1.9-0.2c-0.8,0-1.4,0.3-1.7,0.8
		c-0.3,0.5-0.5,1.3-0.5,2.4c0,1.2,0.2,2.1,0.6,2.5C309.1,79.8,309.3,79.9,309.5,80z"/>
</g>
<g>
	<path d="M169.5,104.8c-1.1,0.2-2.1,0.3-3,0.3s-1.6-0.1-2.1-0.4s-1-0.6-1.2-1.1c-0.3-0.5-0.5-1.1-0.6-1.7c-0.1-0.7-0.2-1.5-0.2-2.5
		s0.1-1.8,0.2-2.5c0.1-0.7,0.3-1.3,0.6-1.8c0.3-0.5,0.7-0.9,1.2-1.1c0.5-0.2,1.2-0.4,2.1-0.4c0.9,0,1.9,0.1,3,0.4l0,1
		c-1.1-0.2-2-0.3-2.9-0.3c-1.2,0-1.9,0.3-2.3,1c-0.4,0.7-0.6,1.9-0.6,3.6c0,0.8,0,1.5,0.1,2c0.1,0.5,0.2,1,0.4,1.4s0.5,0.7,0.9,0.9
		c0.4,0.2,1,0.3,1.7,0.3s1.6-0.1,2.7-0.3L169.5,104.8z"/>
	<path d="M170.8,101c0-1.5,0.3-2.5,0.8-3.2c0.5-0.7,1.4-1,2.6-1s2.1,0.3,2.6,1c0.5,0.7,0.8,1.7,0.8,3.2c0,1.5-0.2,2.5-0.7,3.2
		c-0.5,0.7-1.4,1-2.7,1c-1.3,0-2.2-0.3-2.7-1C171.1,103.5,170.8,102.4,170.8,101z M172.1,101c0,1.2,0.1,2,0.4,2.5
		c0.3,0.5,0.9,0.7,1.8,0.7s1.5-0.2,1.8-0.7s0.4-1.3,0.4-2.5c0-1.2-0.2-2-0.5-2.4c-0.3-0.4-0.9-0.7-1.7-0.7s-1.4,0.2-1.7,0.7
		S172.1,99.8,172.1,101z"/>
	<path d="M180.8,105h-1.2v-8h1.2v0.6c0.9-0.5,1.7-0.7,2.5-0.7c1.1,0,1.8,0.3,2.2,0.9c0.4,0.6,0.6,1.6,0.6,3.1v4.2h-1.2v-4.2
		c0-1.1-0.1-1.9-0.3-2.3c-0.2-0.4-0.7-0.6-1.4-0.6c-0.3,0-0.7,0.1-1.1,0.2c-0.4,0.1-0.7,0.2-0.9,0.3l-0.3,0.1V105z"/>
	<path d="M191.2,96.8c0.4,0,0.9,0.1,1.8,0.2l0.4,0l0,1c-0.9-0.1-1.5-0.1-1.9-0.1c-0.9,0-1.5,0.2-1.8,0.6c-0.3,0.4-0.5,1.2-0.5,2.4
		s0.2,2,0.5,2.4c0.3,0.5,0.9,0.7,1.9,0.7l1.9-0.1l0,1c-1,0.1-1.7,0.2-2.2,0.2c-1.2,0-2.1-0.3-2.6-1c-0.5-0.6-0.7-1.7-0.7-3.2
		c0-1.5,0.3-2.6,0.8-3.2S190,96.8,191.2,96.8z"/>
	<path d="M200.5,104l0.5,0l0,0.9c-1.2,0.2-2.3,0.3-3.1,0.3c-1.2,0-2-0.3-2.4-1c-0.5-0.7-0.7-1.7-0.7-3.1c0-2.8,1.1-4.2,3.3-4.2
		c1.1,0,1.9,0.3,2.4,0.9s0.8,1.5,0.8,2.8l-0.1,0.9H196c0,0.9,0.2,1.5,0.5,2s0.9,0.6,1.7,0.6S199.7,104.1,200.5,104z M200.1,100.5
		c0-1-0.2-1.7-0.5-2.1c-0.3-0.4-0.8-0.6-1.5-0.6c-0.7,0-1.2,0.2-1.6,0.6s-0.5,1.1-0.6,2H200.1z"/>
	<path d="M208.8,99.4v4.1c0,0.4,0.3,0.6,0.9,0.7l0,0.9c-0.8,0-1.5-0.2-1.9-0.6c-1,0.4-1.9,0.6-2.9,0.6c-0.7,0-1.3-0.2-1.7-0.6
		s-0.6-1-0.6-1.8s0.2-1.4,0.6-1.7c0.4-0.4,1-0.6,1.9-0.7l2.5-0.2v-0.7c0-0.5-0.1-0.9-0.4-1.2s-0.6-0.4-1-0.4c-0.9,0-1.7,0.1-2.7,0.2
		l-0.5,0l0-0.9c1.2-0.2,2.2-0.4,3.1-0.4c0.9,0,1.6,0.2,2,0.6C208.6,97.9,208.8,98.5,208.8,99.4z M203.9,102.7c0,1,0.4,1.5,1.2,1.5
		c0.7,0,1.4-0.1,2.1-0.4l0.4-0.1V101l-2.4,0.2c-0.5,0-0.8,0.2-1,0.4C204,101.9,203.9,102.2,203.9,102.7z"/>
	<path d="M211.3,105V93.5h1.2V105H211.3z"/>
	<path d="M220.3,104l0.5,0l0,0.9c-1.2,0.2-2.3,0.3-3.1,0.3c-1.2,0-2-0.3-2.4-1c-0.5-0.7-0.7-1.7-0.7-3.1c0-2.8,1.1-4.2,3.3-4.2
		c1.1,0,1.9,0.3,2.4,0.9s0.8,1.5,0.8,2.8l-0.1,0.9h-5.3c0,0.9,0.2,1.5,0.5,2s0.9,0.6,1.7,0.6S219.5,104.1,220.3,104z M219.9,100.5
		c0-1-0.2-1.7-0.5-2.1c-0.3-0.4-0.8-0.6-1.5-0.6c-0.7,0-1.2,0.2-1.6,0.6s-0.5,1.1-0.6,2H219.9z"/>
	<path d="M229.1,93.5V105h-1.2v-0.5c-0.8,0.5-1.6,0.7-2.4,0.7c-0.4,0-0.8-0.1-1.1-0.2c-0.3-0.1-0.6-0.3-0.9-0.6
		c-0.6-0.6-0.9-1.6-0.9-3.2c0-1.6,0.3-2.7,0.8-3.4c0.5-0.7,1.4-1,2.6-1c0.6,0,1.3,0.1,2,0.2v-3.5H229.1z M225,104
		c0.2,0.1,0.4,0.1,0.7,0.1s0.6-0.1,1-0.2c0.4-0.1,0.7-0.2,0.9-0.3l0.3-0.1v-5.4c-0.7-0.1-1.3-0.2-1.9-0.2c-0.8,0-1.4,0.3-1.7,0.8
		c-0.3,0.5-0.5,1.3-0.5,2.4c0,1.2,0.2,2.1,0.6,2.5C224.6,103.8,224.8,103.9,225,104z"/>
</g>
<line class="st3" x1="18.5" y1="148" x2="144.5" y2="148"/>
<g>
	<path d="M169.5,152.8c-1.1,0.2-2.1,0.3-3,0.3s-1.6-0.1-2.1-0.4s-1-0.6-1.2-1.1c-0.3-0.5-0.5-1.1-0.6-1.7c-0.1-0.7-0.2-1.5-0.2-2.5
		s0.1-1.8,0.2-2.5c0.1-0.7,0.3-1.3,0.6-1.8c0.3-0.5,0.7-0.9,1.2-1.1c0.5-0.2,1.2-0.4,2.1-0.4c0.9,0,1.9,0.1,3,0.4l0,1
		c-1.1-0.2-2-0.3-2.9-0.3c-1.2,0-1.9,0.3-2.3,1c-0.4,0.7-0.6,1.9-0.6,3.6c0,0.8,0,1.5,0.1,2c0.1,0.5,0.2,1,0.4,1.4s0.5,0.7,0.9,0.9
		c0.4,0.2,1,0.3,1.7,0.3s1.6-0.1,2.7-0.3L169.5,152.8z"/>
	<path d="M171.3,153v-8h1.2v1.1c0.9-0.6,1.9-1.1,2.9-1.3v1.2c-0.4,0.1-0.9,0.2-1.4,0.4c-0.5,0.2-0.9,0.3-1.1,0.5l-0.4,0.2v5.9H171.3
		z"/>
	<path d="M176.3,149c0-1.5,0.3-2.5,0.8-3.2c0.5-0.7,1.4-1,2.6-1s2.1,0.3,2.6,1c0.5,0.7,0.8,1.7,0.8,3.2c0,1.5-0.2,2.5-0.7,3.2
		c-0.5,0.7-1.4,1-2.7,1c-1.3,0-2.2-0.3-2.7-1C176.5,151.5,176.3,150.4,176.3,149z M177.5,149c0,1.2,0.1,2,0.4,2.5
		c0.3,0.5,0.9,0.7,1.8,0.7s1.5-0.2,1.8-0.7s0.4-1.3,0.4-2.5c0-1.2-0.2-2-0.5-2.4c-0.3-0.4-0.9-0.7-1.7-0.7s-1.4,0.2-1.7,0.7
		S177.5,147.8,177.5,149z"/>
	<path d="M187.6,145.9c-1.2,0-1.7,0.4-1.7,1.2c0,0.4,0.1,0.6,0.4,0.8c0.3,0.2,0.9,0.3,1.8,0.5c0.9,0.2,1.6,0.4,2,0.7
		c0.4,0.3,0.6,0.9,0.6,1.7s-0.3,1.4-0.8,1.8s-1.3,0.6-2.3,0.6c-0.7,0-1.4-0.1-2.3-0.2l-0.5-0.1l0.1-1c1.2,0.2,2.1,0.3,2.8,0.3
		s1.1-0.1,1.4-0.3c0.3-0.2,0.5-0.5,0.5-1s-0.1-0.8-0.4-0.9c-0.3-0.2-0.9-0.3-1.8-0.5c-0.9-0.1-1.6-0.4-2-0.7
		c-0.4-0.3-0.6-0.8-0.6-1.6c0-0.8,0.3-1.4,0.8-1.7c0.5-0.4,1.2-0.6,2.1-0.6c0.7,0,1.5,0.1,2.4,0.2l0.4,0.1l0,1
		C189.2,146,188.3,145.9,187.6,145.9z"/>
	<path d="M195,145.9c-1.2,0-1.7,0.4-1.7,1.2c0,0.4,0.1,0.6,0.4,0.8c0.3,0.2,0.9,0.3,1.8,0.5c0.9,0.2,1.6,0.4,2,0.7
		c0.4,0.3,0.6,0.9,0.6,1.7s-0.3,1.4-0.8,1.8c-0.5,0.4-1.3,0.6-2.3,0.6c-0.7,0-1.4-0.1-2.3-0.2l-0.5-0.1l0.1-1
		c1.2,0.2,2.1,0.3,2.8,0.3c0.6,0,1.1-0.1,1.4-0.3c0.3-0.2,0.5-0.5,0.5-1s-0.1-0.8-0.4-0.9c-0.3-0.2-0.9-0.3-1.8-0.5
		c-0.9-0.1-1.6-0.4-2-0.7c-0.4-0.3-0.6-0.8-0.6-1.6c0-0.8,0.3-1.4,0.8-1.7c0.5-0.4,1.2-0.6,2.1-0.6c0.7,0,1.5,0.1,2.4,0.2l0.4,0.1
		l0,1C196.7,146,195.7,145.9,195,145.9z"/>
	<path d="M199.8,149.2V148h4.8v1.1H199.8z"/>
	<path d="M209.7,142.8c-1.6,0-2.4,0.6-2.4,1.8c0,0.7,0.2,1.1,0.6,1.4c0.4,0.3,1.1,0.5,2.2,0.8c1.1,0.3,1.9,0.6,2.4,1
		c0.5,0.4,0.7,1.1,0.7,2c0,2.3-1.2,3.4-3.5,3.4c-0.8,0-1.8-0.1-2.9-0.3l-0.6-0.1l0.1-1c1.5,0.2,2.6,0.3,3.3,0.3
		c1.6,0,2.4-0.7,2.4-2.2c0-0.6-0.2-1-0.5-1.3c-0.3-0.3-1-0.5-1.9-0.7c-1.2-0.3-2.1-0.6-2.7-1c-0.5-0.4-0.8-1.1-0.8-2.1
		c0-2,1.2-3,3.6-3c0.8,0,1.7,0.1,2.8,0.2l0.5,0.1l-0.1,1C211.3,142.9,210.3,142.8,209.7,142.8z"/>
	<path d="M220.5,152l0.5,0l0,0.9c-1.2,0.2-2.3,0.3-3.1,0.3c-1.2,0-2-0.3-2.4-1c-0.5-0.7-0.7-1.7-0.7-3.1c0-2.8,1.1-4.2,3.3-4.2
		c1.1,0,1.9,0.3,2.4,0.9s0.8,1.5,0.8,2.8l-0.1,0.9h-5.3c0,0.9,0.2,1.5,0.5,2s0.9,0.6,1.7,0.6S219.7,152.1,220.5,152z M220.1,148.5
		c0-1-0.2-1.7-0.5-2.1c-0.3-0.4-0.8-0.6-1.5-0.6c-0.7,0-1.2,0.2-1.6,0.6s-0.5,1.1-0.6,2H220.1z"/>
	<path d="M226.1,144.8c0.4,0,0.9,0.1,1.8,0.2l0.4,0l0,1c-0.9-0.1-1.5-0.1-1.9-0.1c-0.9,0-1.5,0.2-1.8,0.6c-0.3,0.4-0.5,1.2-0.5,2.4
		s0.2,2,0.5,2.4c0.3,0.5,0.9,0.7,1.9,0.7l1.9-0.1l0,1c-1,0.1-1.7,0.2-2.2,0.2c-1.2,0-2.1-0.3-2.6-1c-0.5-0.6-0.7-1.7-0.7-3.2
		c0-1.5,0.3-2.6,0.8-3.2S224.9,144.8,226.1,144.8z"/>
	<path d="M234.3,146h-2.5v3.8c0,0.9,0.1,1.5,0.2,1.8c0.1,0.3,0.5,0.4,1,0.4l1.4-0.1l0.1,1c-0.7,0.1-1.3,0.2-1.6,0.2
		c-0.8,0-1.4-0.2-1.7-0.6s-0.5-1.2-0.5-2.3V146h-1.1v-1h1.1v-2.4h1.2v2.4h2.5V146z"/>
	<path d="M235.7,143.2v-1.4h1.2v1.4H235.7z M235.7,153v-8h1.2v8H235.7z"/>
	<path d="M238.9,149c0-1.5,0.3-2.5,0.8-3.2c0.5-0.7,1.4-1,2.6-1c1.2,0,2.1,0.3,2.6,1c0.5,0.7,0.8,1.7,0.8,3.2c0,1.5-0.2,2.5-0.7,3.2
		c-0.5,0.7-1.4,1-2.7,1c-1.3,0-2.2-0.3-2.7-1C239.1,151.5,238.9,150.4,238.9,149z M240.1,149c0,1.2,0.1,2,0.4,2.5
		c0.3,0.5,0.9,0.7,1.8,0.7c0.9,0,1.5-0.2,1.8-0.7s0.4-1.3,0.4-2.5c0-1.2-0.2-2-0.5-2.4s-0.9-0.7-1.7-0.7c-0.8,0-1.4,0.2-1.7,0.7
		S240.1,147.8,240.1,149z"/>
	<path d="M248.9,153h-1.2v-8h1.2v0.6c0.9-0.5,1.7-0.7,2.5-0.7c1.1,0,1.8,0.3,2.2,0.9s0.6,1.6,0.6,3.1v4.2h-1.2v-4.2
		c0-1.1-0.1-1.9-0.3-2.3c-0.2-0.4-0.7-0.6-1.4-0.6c-0.3,0-0.7,0.1-1.1,0.2c-0.4,0.1-0.7,0.2-0.9,0.3l-0.3,0.1V153z"/>
	<path d="M266.1,153H260v-11.1h1.2v10h4.9V153z"/>
	<path d="M267.5,143.2v-1.4h1.2v1.4H267.5z M267.5,153v-8h1.2v8H267.5z"/>
	<path d="M272.2,153H271v-8h1.2v0.6c0.9-0.5,1.7-0.7,2.5-0.7c1.1,0,1.8,0.3,2.2,0.9s0.6,1.6,0.6,3.1v4.2h-1.2v-4.2
		c0-1.1-0.1-1.9-0.3-2.3c-0.2-0.4-0.7-0.6-1.4-0.6c-0.3,0-0.7,0.1-1.1,0.2c-0.4,0.1-0.7,0.2-0.9,0.3l-0.3,0.1V153z"/>
	<path d="M285,152l0.5,0l0,0.9c-1.2,0.2-2.3,0.3-3.1,0.3c-1.2,0-2-0.3-2.4-1c-0.5-0.7-0.7-1.7-0.7-3.1c0-2.8,1.1-4.2,3.3-4.2
		c1.1,0,1.9,0.3,2.4,0.9s0.8,1.5,0.8,2.8l-0.1,0.9h-5.3c0,0.9,0.2,1.5,0.5,2s0.9,0.6,1.7,0.6S284.2,152.1,285,152z M284.6,148.5
		c0-1-0.2-1.7-0.5-2.1c-0.3-0.4-0.8-0.6-1.5-0.6c-0.7,0-1.2,0.2-1.6,0.6s-0.5,1.1-0.6,2H284.6z"/>
</g>
</svg>
